<svg xmlns="http://www.w3.org/2000/svg" width="100%" height="100%" viewBox="0 0 568.7 850">

	<defs>
        <linearGradient id="TheGradient" x1="0" x2="0" y1="0" y2="1">
            <stop id= "top-color" offset="10%"  stop-color="red"><animate attributeType="XML" attributeName="stop-color" values="red;orange;yellow;green;blue;violet;red;" dur="12s" repeatCount="indefinite"></animate></stop>
            <stop id="bottom-color" offset="85%" stop-color="blue"><animate attributeType="XML" attributeName="stop-color" values="blue;violet;red;orange;yellow;green;blue;" dur="12s" repeatCount="indefinite"></animate></stop>
        </linearGradient>

			
			/>
	</defs>

	<style>

	</style>

	<path d="M14.4 298.2c1.3 1.3 1.2 287.9 2.6 289.3 2.1 2 4.1 2.4 6.4 1 0.9-0.6 1.8-1.1 2.7-1.5 1.8-0.9 3.4-0.2 4 1.8 1.3 4.8 2 9.8 2.5 14.8 0.5 5.6 0.9 11.2 1.4 16.9 0.2 3.2 0.4 6.4 0.6 9.5 0.4 7.5 0.9 14.9 1.7 22.4 0.9 8.7 2 17.4 4.3 25.8 2.3 8.6 5 17 10.9 24 0.4 0.5 0.7 1 1.3 1.4 0.8 0.5 1.4 1.4 2.6 1.6 1.6-1.4 1.9-3.5 2.1-5.4 0.6-4.7 1.1-9.5 1.1-14.2 0.1-9.8 1.8-19.3 4-28.7 1.7-7.4 3.3-14.9 4.6-22.4 1-6.2 2.3-12.3 3.6-18.5 1-5.1 2.1-10.1 3.8-15 0.8-2.3 2.1-4.4 3.5-6.3 1.7-2.1 4.2-3 6.8-2.4 3.1 0.8 4.3 3.6 5 6.3 1.9 7 3.2 14.1 3.8 21.3 0.5 6.3 1.5 12.6 2.1 19 0.5 5.3 0.8 10.6 1.6 15.8 1.6 10.8 1.1 21.6 0.9 32.4 -0.1 5.7-0.7 11.4-0.8 17.1 -0.4 15.8 3.2 30.7 12.2 44 2.1 3.1 4.5 6 7.3 8.5 3 2.6 5 2.7 8 0.3 2.8-2.2 5.1-5 7.9-7.2 6.7-5.3 12.2-4.9 19.1-1 2.9 1.6 5.5 3.7 7.9 5.8 2.7 2.4 5.6 4.4 8.5 6.6 4.5 3.3 7.5 1.6 10.9-2.4 2.1-2.5 3.9-5.2 6.7-7.1 5.4-3.7 10.9-2.7 15.9 0.4 8.6 5.3 14.5 12.9 16 23.1 1.4 9.6 2.5 19.3 3.7 29 1.7 13.1 4.7 25.7 12.2 36.9 1.8 2.8 4 5.2 6.5 7.3 1.7 1.5 3.7 1.5 5.8 0.1 4.9-3.3 7.2-8.3 8.9-13.5 3.1-9.1 5.4-18.5 8.7-27.6 3-8.4 6.5-16.7 12.1-23.8 1.4-1.8 2.8-3.6 4-5.5 4.1-6.6 9.1-7.5 16.2-5 1.7 0.6 3.3 1.1 5 1.6 2.7 0.7 5.4 0.4 7.7-1.3 6-4.7 12.9-4.8 19.9-3.7 1.7 0.3 3.4 0.5 5 0.8 5.8 1.1 10.8-1.2 15.4-4.3 4.9-3.3 8.8-7.6 12.3-12.3 1.3-1.7 2.9-3.3 4.5-4.7 3.1-2.7 6.9-3 10.6-2.1 5.6 1.5 10.8 4 16 6.8 9.4 5 19.2 8.2 30 7.6 7.2-0.4 13.2-3.7 18.6-8.4 4.3-3.7 7.9-8 12.4-11.4 6.1-4.5 13.1-6.1 20.5-6.5 9.8-0.6 19.6-0.5 28.9-4.2 6.8-2.7 13-6.3 18.8-10.6 8.2-5.9 13.8-13.9 17.5-23.2 4-9.8 6.6-19.9 8.6-30.3 2.7-13.9 4-27.9 5.9-41.9 0.9-6.7 1.5-13.5 3.4-20 1-3.2 6.4-225.5 6.4-225.5" class= "drip drip7"/>

	<path d="M-177.5 506.4c0.3-0.3 0.6-0.4 1.1-0.4 6.8 0 13.5 1.3 20.2 2.6 4.4 0.9 8.8 2.1 13.2 3.2 5.3 1.3 10.6 2.5 15.7 4.3 5.6 1.9 11.4 3.2 16.8 5.4 6.8 2.7 13.5 5.5 20.5 7.6 10.2 3.1 19.2 1.5 26.7-6.3 2.5-2.6 4.9-5.3 7.5-7.8 3.3-3.2 7.6-3 10.7 0.5 6.1 6.7 10.5 14.6 14.9 22.4 5.5 9.6 11 19.1 18 27.8 1.9 2.4 4 4.5 6.5 6.2 2.3 1.6 5.2 1.7 7.4 0 1.3-1.1 2.5-2.2 3.7-3.4 4-4 7.8-5.1 11.5-3.1 2.7 1.5 5.1 3.6 7.1 6 6.6 7.9 10.9 17.1 14.3 26.6 5.5 15.5 10.2 31.3 16.2 46.7 2 5.2 4.3 10.1 8.7 14 5.2 4.5 11.5 4.4 16.5 0.9 5.5-3.8 8.3-9.6 11.1-15.3 4.3-8.9 6.7-18.5 9.7-27.8 1.9-5.9 3.6-11.8 5.7-17.6 1.7-4.7 3.3-9.5 5.7-13.9 2.9-5.6 6.3-11.1 11.6-14.6 7.9-5.2 15-11.2 21.7-17.8 3.8-3.8 8.5-4.8 13.6-3.1 3.5 1.2 6.8 3 9.8 5.1 2.4 1.7 4.7 4.2 4.2 7.4 -1.6 9.4-0.7 18.7 0.9 28 1.5 8.7 3.8 17.3 6.6 25.7 3.4 10.1 7.2 20.2 11.8 29.9 2.8 5.9 6.1 11.5 9.5 17.1 4.5 7.3 9.4 14.4 16.3 19.8 3.4 2.6 6.4 5.6 8.8 9.3 3.4 5.4 5.6 11.2 7.5 17.2 0.7 2.3 1.4 4.5 2.4 6.7 2.1 4.6 6.4 7.1 9.9 10.3 1.4 1.3 2.9 2 4.7 2.2 1.7 0.2 2.9 0.8 3.9 2.1 2.5 3.4 4.9 6.8 7.5 10 2.7 3.4 5.1 3.1 6.9-0.8 3-6.6 4.5-13.7 6.6-20.6 1.3-4.1 2.2-8.4 3.9-12.3 4.6-10.4 9.7-20.5 14.2-30.9 2.9-6.6 5.2-13.4 7.6-20.2 2-5.5 3.7-11.2 6.3-16.5 6.4-12.6 13.2-24.9 22-36.1 4.6-5.9 9.5-11.7 15.9-15.9 4.2-2.7 8.7-4.9 12.7-7.9 1.9-1.4 4.4-0.9 5.9 0.8 1.2 1.4 2.3 3.1 3.6 4.4 1.2 1.2 2.6 1.5 4.2 0.4 2.1-1.5 3.3-3.6 4.8-5.6 1.1-1.6 0.7-103.6 2.7-104.6h-557.2l1.1 31.9" class= "drip drip6"/>

	<path d="M-35.1 444.3c0.2 2.5 4.4 11 5.5 8.7 0.9-1.7 1.7-3.7 1.9-5.7 0.9-6.4 1.5-12.9 2.3-19.4 1.4-11.5 1.5-23.1 2.3-34.7 0.7-9.3 1.1-18.7 2.7-27.8 0.2-1.2 0.5-2.3 0.8-3.4 0.5-1.9 1.4-2.1 2.5-0.8 2.5 3.1 4 7.1 5.6 11 5.2 12.4 8.1 25.9 11 39.3 5.4 24.6 10.8 49.2 17.7 73.1 2.1 7.2 4.3 14.3 6.6 21.4 2 5.9 5.3 8 9.6 9.2 4.4 1.2 8.9 0.2 13.2 2.7 2.8 1.6 5 3.6 6.9 6.7 3.1 5 5.8 10.5 7.6 16.5 1.1 3.4 2.9 5 4.6 7.1 3.6 4.4 7.4 8.7 11.2 13 4.3 4.9 9.6 3.3 11.6-4.5 2.3-9.1 3.2-18.4 3.8-27.9 0.8-11.7 0.7-23.5 2.2-35.1 0.3-2.4 0.8-4.7 1.7-6.9 1.8-4.8 4.7-5.2 7-0.7 2.8 5.6 3.9 12.1 4.8 18.7 1.4 10.7 2.8 21.3 4.2 32 0.9 7 2.2 13.8 3.5 20.6 2.4 12 7 22.5 11.9 32.7 7 14.7 14.6 28.7 22.5 42.4 4.9 8.5 10.1 16.7 16 23.9 4.7 5.7 9.3 3.1 11.7-2.5 2.1-4.9 3-10.3 3.2-15.7 0.3-12.8 0.2-25.6-0.1-38.5 -0.3-11.1-0.6-22.3 1.9-33.2 2.4-10.2 6.5-13.1 14.3-11.6 8.8 1.7 16.2 7.4 24 12.3 6.5 4.1 13 8.3 19.8 11.7 5.9 2.9 11.8 4 17.9 3.5 5.7-0.5 10.9-3.8 15.6-8.3 3.6-3.4 7.1-7 11.2-9.5 5.6-3.5 11.4-4.2 17.3-3 8 1.6 15.5 6.1 23.5 8.3 6.9 1.9 13.5 1.3 18.2-7.5 2.3-4.3 4.6-8.4 7-12.6 2.7-4.8 4.8-5 8.1-1.2 4.8 5.6 7.1 13.3 9.1 21 3.4 12.9 5.9 26.2 7.8 39.6 1.2 8 1.5 16.2 2.3 24.4 1.3 13.1 1.5 26.4 3.9 39.3 1.3 7.1 3.5 13.7 6 20.1 1.3 3.4 2.9 7 6.3 7.3 0.3 0 0.5 0.5 0.8 0.7 5.4 3.5 6.4 3.2 10-3.1 0.8-1.4 1.7-2.8 2.6-4.1 2.3-3.5 2.6-3.5 5.6-0.8 4.8 4.3 7.1 11 9.5 17.6 3.7 10.2 6.6 20.9 9.2 31.6 1.8 0.4 2.8-1.3 3.9-2.3 8.1-7.4 13.2-17.7 16-30.4 1.6-7.1 3.5-14 5.3-21 1.6-6.5 2.9-13.2 5-19.5 1.8-5.5 3.7-5.2 6.2-1.5 3.3 4.9 5.5 10.9 8.1 16.4 1.6 3.4 2.8 7.2 4.8 10.3 0.8 1.2 1.5 2.3 2.6 3 2.1 1.4 3.5 0.7 4.2-2.3 0.5-2.1 0.9-4.2 0.9-6.5 -0.3-7.8 0-15.5 0.6-23.2 0.6-7.3 2.4-14.3 5.3-20.5 3.2-6.9 6.1-13.8 7.6-21.7 0.4-2 1.3-4.3 3-5.4 2 1.6 2.8 4.3 3.6 7 1.8 6.5 3.4 13.2 5.1 19.8 0.1 0.5-0.1 1.2 0 1.5 1 1.8 1.5 4.5 3.6 4.5 2.1 0 2.4-2.5 3.1-4.5 2.1-6.8 2.9-14.1 3.9-21.3 2.1-15.1 3.6-30.4 5.1-45.7 1-10.7 2.4-21.3 3.3-32 1.3-16.9 4.1-33.4 6.8-49.9 2.3-14.3 5.1-28.5 7.8-42.7 1-5.3 2.9-10.1 6.1-13.7 0.7-0.8 1.4-1.7 2.5-2 4.8-1.1 6.7-6.1 8.1-11.8 1.7-6.7 2.8-13.6 3.6-20.6v-242.7l-602.3 30.2L-35.1 444.3z" class= "drip drip5"/>

	<path d="M578.4 3.5c0.8 4.4-0.3 131.8-1 136 -0.5 2.9-0.5 6-0.7 8.8 -0.2 4.2-0.7 8.3-1.1 12.5 -0.8 8.2-1.9 16.4-2 24.7 0 3.7-0.6 7.5-0.4 11.2 0.5 6.6 0.5 13.1 0.6 19.7 0.2 8.5-0.9 16.6-3.7 24.3 -4.3 12-8.4 24-11.9 36.2 -3.6 12.9-6.9 25.9-9 39.3 -1.4 8.7-3.5 17.2-4.8 25.9 -1.1 7.7-2.2 15.3-2.9 23.1 -1 10.4-1.1 20.9-2.2 31.2 -0.9 9.3-1.6 18.6-3 27.8 -1.2 7.7-2.2 15.4-3.4 23.1 -2.6 16.4-6.9 32.1-13.9 46.8 -4.1 8.7-8.1 17.6-12.3 26.2 -2.4 5-5.9 7.1-12.2 6 -4.1-0.7-8-2-11.9-3.2 -4.1-1.2-7.2 0-9.8 3.8 -1.8 2.6-4 5.1-7.3 4.4 -2.3-0.5-4.6-0.7-6.8-1.8 -5.3-2.8-10.6-2.4-15.8 0.6 -3.6 2-7.2 3.9-10.9 5.6 -5.4 2.5-11.2 2.9-16.9 3.1 -7 0.2-13.5 1.7-19.3 6.4 -0.8 0.6-1.5 1.3-2.5 1.2 0 0-9.5 2-14.1 0 -4.7-2-7-3.6-10-6 -5.8-4.7-11.3-9.9-15.8-16.1 -3.9-5.4-5.6-11.9-6.5-18.7 -1.3-9.2-1.4-18.5-1.8-27.8 -0.2-5.4 0.1-10.9-0.9-16.2 -1.1-6-1.1-12.1-2-18.1 -0.6-4.1-1.1-8.3-1.3-12.4 -0.3-6-1.2-11.9-1.8-17.8 -0.6-6-1-12.1-2-18.1 -0.9-5.6-1.1-11.3-2-16.9 -0.6-4.2-0.9-8.5-1.2-12.8 -0.5-9.4-0.7-18.8-1.7-28.1 -1.2-11.5-2.3-23-5.5-34 -1.1-3.9-2.6-7.8-5.4-10.6 -2.3-2.3-3.4-2-4.9 0.9 -2.3 4.4-2.5 9.5-3.2 14.4 -1 6.5-1.7 13.1-2.8 19.7 -1.5 8.7-3.2 17.3-4.8 25.9 -1.3 7.1-2.7 14.1-3.8 21.2 -0.9 6.2-1.4 12.5-2.2 18.7 -0.9 7.2-1.4 14.3-1.9 21.5 -0.8 11.4-0.8 22.9-0.8 34.3 0 7.8-0.2 15.6-0.6 23.4 -0.3 7.2-0.7 14.4-1.7 21.5 -1 7.7-2.1 15.4-6.4 21.9 -2 3-4.1 5.8-7.1 7.4 -3.4 1.9-6.7 1.1-9.8-1.2 -5.9-4.5-11-10.3-16.6-15.3 -0.5-0.5-0.9-1.1-1.4-1.5 -6.6-5.7-8.8-5.5-14.7 1.2 -0.5 0.6-1.2 1.2-1.6 1.9 -3.2 4.8-8.5 5.3-13.3 2.2 -6.6-4.2-9-11-9.6-19.3 -0.6-8.5-2.3-16.9-3.7-25.3 -0.4-2.6-1.4-5.1-1.1-7.8l-0.5 1.3c-1.6-0.2-3 0.8-4.3 1.6 -3.7 2.2-7.6 4.1-11.7 5 -4.2 0.9-8 0.3-11.2-3.4 -3.3-3.8-4.4-8.8-6.2-13.5 -3.6-9.3-7.3-18.4-13.6-26 -3.5-4.2-7.5-7.8-10.4-12.7 -5.5-9.5-8.9-20.1-12.1-30.6 -4.5-14.8-8.1-29.9-11-45.2 -2.4-12.5-4.4-25.1-7.2-37.4 -3.2-14.2-6.2-28.6-10.5-42.5 -3.1-9.9-6.2-19.9-10.9-29.1 -0.6-1.1-0.6-2.9-2.2-2.7 -1.2 0.1-1.4 1.7-1.9 2.7 -0.5 1.1-1.2 2-1.6 3.1 -3.4 10.8-6.8 21.6-10.1 32.5 -1.9 6.3-3.7 12.8-7.9 17.8 -3 3.5-7.8 5.4-13 2.5 -5.3-3-8.3-8.2-10.9-14 -3.9-8.6-6.1-17.8-8.7-26.9 -1.1-3.9-1.6-8.1-4.6-11.2 -3 2.2-6.2 3.6-9.5 4.7 -3.1 1.1-5.6 0-8.2-1.6 -0.9-0.6-0.7-1.4-0.8-2.2 0-0.8-1.5-1.7-2.3-0.2 -0.8 1.5-1.7 6.4-1.9 9.7 -0.7 13.9 0.3 27.7 1 41.5 0.3 4.9 0 9.8 0.1 14.7 0.2 9 0.4 17.9 0.7 26.8 0.2 5.1 0.3 10.2 0.4 15.3 0.1 11.6-0.1 23.1 0.1 34.7 0.1 5.1-0.3 10.3 0.1 15.3 0.8 11.5 0.3 22.9 0.4 34.4 0.1 10.1 0.1 20.2 0 30.3 -0.1 7.9-0.9 15.7-2.1 23.4 -0.9 5.6-1.1 11.3-2 16.8 -0.9 5.8-1.2 11.8-2.9 17.5 -2 6.9-6.8 9-11.7 7.2V0L578.4 3.5z" class= "drip drip4"/>

	<path d="M-5.1-96.4c1.8 3.3 2.4 7 2.8 10.6 1.2 9.6 1.9 19.2 2.5 28.8 0.3 5.8 1.3 11.6 1.8 17.4C2.4-34.7 2.5-29.8 2.9-25c1.2 11.8 1.1 23.7 0.9 35.6 -0.2 10.4-0.9 20.8-1.4 31.2C2.1 48.4 1.9 55.1 1.5 61.8c-0.5 9.1-1.3 18.2-1.6 27.3 -0.2 6.7-1.2 13.3-0.9 20.1 0.2 4.7-0.6 9.3-0.6 14 0 8.8-0.2 17.5 2.1 26.1 1.4 5.2 3.4 10 9 11.5 4.1 1.1 8.3 0.2 12.3-0.9 5-1.4 9.9-3.3 15-4.5 6.5-1.5 9.5-0.4 12 3.4 1.3 1.9 2 4.1 2.9 6.2 2.3 5.1 3 10.8 5.7 15.7 2.4 4.5 5.5 8.2 10.2 10.4 2.6 1.2 5.4 1.6 8.3 1.7 5.8 0.1 11.5 0.2 17.3 0.2 5.5 0.1 10.2 2 13.7 6.3 1.9 2.4 4.3 3.4 7.1 3.6 2.2 0.1 5.7-0.4 6.6-0.2 0.9 0.2 1.3 3 2.4 2.9 1.1-0.1 1.3-4.8 1.6-7.3 0.9-8.7 1.3-17.5 2.5-26.1 1.1-8.1 2.9-16.1 8.4-22.5 2.1-2.4 4.3-4.8 7.6-4.2 3.3 0.6 4.2 3.8 5.2 6.7 2.4 7.1 3.6 22 3.6 22v-410.3L2-247.7c-1.4 10.3-2.4 20.6-3.1 30.8L-5.1-96.4z" class= "drip drip3"/>

	<path d="M549 121c2.9-39 2.1-77.5 4.9-115.8l1-31L151.7-57.3v331.2c0.9-2.5 1.9-4.9 5-5.4 1.6 0.9 2.4 2.1 2.6 4 0.3 3.5 0.8 6.9 0.9 10.4 0.4 10.6 1.6 21 4.4 31.2 0.7 2.6 1.4 5.6 4 7.4 3.8-2.7 4.1-8.1 7.9-10.6 2.4 1.3 2.9 3.7 3.6 5.9 2.8 8.9 5.7 17.8 8.3 26.9 1.9 6.7 3.4 13.5 5 20.3 2.4 10.5 4.7 21.1 7.1 31.7 2.3 10 4.5 19.9 8.1 29.5 1.5 4.2 2.8 8.5 5.9 11.9 4.3 4.7 11 3.8 15-1 3.8-4.5 5.4-10 6.5-15.5 2.3-10.9 2.9-22 3-33.1 0.1-8.4 0.9-16.8 1.3-25.2 0.2-2.7 0.2-5.3 0.5-8 0.7-6.2 1.6-12.4 2.3-18.6 0.9-8 2.4-16 4.6-23.7 2.5-8.7 5-17.4 11.1-24.4 0.9-1.1 1.9-2.1 3.1-2.9 2.3-1.4 4.3-0.8 5.9 1.4 2.5 3.5 3.4 7.7 4.2 11.9 1.8 8.8 2.5 17.9 4.8 26.6 1 3.7 2 7.3 4.5 10.4 2.5 3.1 5.6 2.5 7.9 0.2 3.3-3.4 5.6-7.4 7.6-11.6 1.8-4 3.3-8.1 5.3-12.1 1.5-3 1.8-6.3 2.2-9.5 0.8-5.7 2.2-11.2 3.6-16.7 2-8.1 5.9-15.5 9.4-22.9 5-10.6 8.9-21.4 11.7-32.7 1.6-6.4 3.1-12.9 6.2-18.9 0.9-1.8 2-3.4 3.3-4.9 2.5-2.7 5.3-2.8 8.6-1.9 8.4 2.3 12.8 8.5 15.1 16.5 1.6 5.3 2.3 10.7 2.9 16.2 1 8 0.8 16 1.1 24 0.2 6.3-0.3 12.6-0.1 18.9 0.2 10.6 0.4 21.3 1 31.9 0.3 4.9 0.4 9.9 1.8 14.8 1 3.7 2.8 5.8 5.5 5.5 1.7-0.1 3-1.2 4.3-2.2 2.2-1.8 4.2-3.8 6.4-5.5 1.6-1.2 3.2-2.6 5.5-1.7 1.8 2.3 2.1 5.3 2.5 8.2 1.6 12 3.1 24 4.5 36 0.9 7.5 1.6 15 2.1 22.5 0.6 7.8 1 15.6 1.2 23.5 0.1 6.5 0.4 13 1.8 19.3 1.2 5.4 2.6 10.8 7.1 14.5 3.7 3.1 8.1 4.6 12.6 5.7 3.1 0.8 5.5 1.5 9.5 1.8s20.2 2.1 26.1 0c5.9-2.1 6.6-3.9 9.7-6.1 6.1-4.2 12.1-8.6 18-13 7.3-5.4 11.3-13.1 13.8-21.7 1.7-6 1.6-12.1 1.4-18.1 -0.4-10.2-1.6-20.5-1.7-30.7 -0.1-8.4 0.5-16.8 1.7-25.2 0.7-5 0.9-10.2 1.5-15.2 0.5-4.5 1.3-9 1.9-13.5 0.7-4.9 1.3-9.8 1.9-14.8 0.8-6.8 2.1-13.6 3.6-20.3 1.8-8.5 3.5-16.9 5.2-25.4 1.6-7.5 3.3-15 4.7-22.5 1.5-7.8 2.7-15.6 4.1-23.5 0.9-5.2 1.9-10.3 2.8-15.5 1.3-7.7 2.5-15.3 3.8-23 2-11.2 4.4-22.3 9.1-32.6 1.4-3 3-6.1 5.9-8 0-0.6 0-1.1 0-1.7C548 125 546 119 549 121z" class= "drip drip3"/>

	<path d="M-55.6 30.1V-17h667.7v125.3c-0.7-5.5-1.4-10.9-2.1-16.4 -0.8-6.2-1.6-12.4-2.4-18.6 -0.5-4.2-1.2-8.4-1.1-12.6 0.1-3.5 0.3-6.9 0.3-10.4 -0.1-9.6-0.8-19-5.1-27.9 -2.6-5.3-5.6-10.3-10.8-13.6 -4.7-3-10-2.1-15.1-0.6 -8.3 2.4-13.6 8.3-18.1 14.5 -7.7 10.7-12.7 22.6-17.4 34.7 -0.7 1.9-1.5 3.8-2.4 5.7 -1.8 4-5.3 5.7-9.8 6 -7.6 0.5-12.8 4.3-16.3 10.1 -5.3 8.7-7.9 18.2-8.6 28.2 -0.4 5.5-0.6 10.9 0.2 16.4 1.1 7.4 2 14.9 2.6 22.4 0.2 3 0.5 6.3-2.3 8.7 -0.2 0.2-0.6 0.3-1 0.4 -2.8-2.3-3.8-5.5-5.2-8.4 -2.1-4.2-4-8.5-7.7-11.8 -1.3-1.2-2.9-2-4.8-2.2 -3.5 0.6-5.3 3.2-6.5 5.8 -3.2 6.9-5.4 14.1-6.7 21.6 -2.3 13.2-1.8 26.4-1.6 39.7 0.1 6.4 1.3 12.8 2 19.1 0.6 6 1.2 12 1.8 18 0.3 2.6 0.6 5.3 0.6 7.9 0 3.8-2 5.1-5.9 4.4 -10.7-1.9-20.9-5-30.6-9.4 -4-1.8-7.7-4.1-11.3-6.5 -7.3-4.8-14-10.4-22.1-14.2 -3.9-1.8-8-3.4-12.2-3.7 -9.2-0.7-12.7-6.4-15.1-13.2 -2.2-6.1-3-12.5-3.6-18.9 -0.5-5.2-0.6-10.4-1.3-15.6 -1.1-8.8-0.5-17.7-0.5-26.5 0-7.2 0.6-14.4 1.1-21.6 0.7-8.9 1.1-17.8 1.2-26.8 0.1-8.9 0.7-17.9 1.1-26.8 0.3-6.9-0.8-13.7-2.4-20.5 -0.2-0.8-0.7-1.6-1.3-2.8 -3.2 2.8-4.9 5.9-6.5 9 -4 8.3-6.2 17-7.7 26 -2.6 15.5-6.8 30.7-13.8 45.1 -4.8 9.9-7.4 20.3-9.9 30.7 -1 4.1-1.6 8.3-3.1 12.3 -2 5-4.3 6.7-9.8 6.3 -6.8-0.5-11.5 2.4-15.5 7.1 -5.3 6.2-9.5 13.1-16.1 18.3 -4.5 3.6-9.5 6.6-13.9 10.2 -7.2 5.8-11.3 13.3-13.1 21.8 -1.3 5.8-1.7 11.6-1.8 17.5 -0.1 6.6 0.4 13.1-0.5 19.7 -0.6 4.5-3 8.4-6.6 8.7 -3.6 0.3-7.2 0.2-10.7-0.7 -5.1-1.3-10.2-1.9-15.5-1.4 -3.1 0.3-5.6 1.4-7.7 3.3 -3.1 2.8-6.1 5.7-9.3 8.5 -2.4 2.1-3.8 1.9-6.2-0.2 -4.8-4.1-7-9.5-8.9-15.1 -2.2-6.3-3.1-12.9-4.3-19.4 -1.4-8-2.4-16-3.6-24.1 -1.2-8.4-1.9-16.7-1.8-25.2 0.1-7.2 0.3-14.4 1.2-21.6 0.6-4.8 0.7-9.7 1.3-14.5 0.5-4.6 1.4-9.1 2-13.7 0.7-4.8 1.3-9.7 2.1-14.5 1.6-8.8 1.7-17.7 2-26.5 0.2-5.1 0.1-10.5-2.1-15.3 -2.1-4.5-5.2-5.2-9.4-2.2 -4 3-6.3 7.1-8.4 11.4 -2.3 4.7-4.1 9.8-8.6 13.4 -2.8 2.2-5.1 2.2-7.4-0.3 -3.5-3.6-5.4-7.9-5.9-12.6 -0.6-5.2-0.6-10.4-1-15.6 -0.1-1.8-0.5-3.7-0.9-5.5 -0.5-2.1-2.4-2.1-4.1-1.9 -2.9 0.4-5.8 0.9-8.6 1.6 -8.3 2-12.6-1-15.9-7.5 -3.9-7.6-6-15.8-5.4-24.3 0.3-4.7 1.5-9.3 2.3-14 1-6.1-0.2-11.9-2.6-17.5 -1.6-3.8-3.3-7.5-7.2-9.8 -5.5-3.3-9.8-4-14.9 1.9 -4.4 5-6.5 10.9-8.3 17 -2.6 8.8-3.6 17.9-5.5 26.8 -2 10-5 19.9-7.3 29.8 -1 4.5-1.6 9.1-2.1 13.7 -0.7 5.9-1.5 11.8-1.7 17.8 -0.2 5-0.4 10.1-1.3 15 -0.6 3.4-1.2 6.8-4.2 9.3 -0.9 0.3-1.8 0.5-3 0.9 -4.1-2-8.3-4.3-12.8-6 -3.2-1.3-6.8-2-9.8 0.8 -1.7 1.6-3 3.7-3.6 6 -1.9 6.6-2.4 13.4-3.1 20.2 -0.7 6.9-0.2 13.9-0.5 20.8 -0.3 6.2-0.4 12.4-1.3 18.6 -1 7.3-2.4 14.6-4.2 21.9 -1.6 6.6-3.4 13.2-4.2 20 -0.6 5.1-1.9 10-2.9 15 -0.2 1-0.8 1.9-1.3 3.2 -3.5-2.4-5-5.5-6.4-8.7 -3.6-7.7-4.4-15.9-5-24.1 -0.5-6.1-0.8-12.2-1.2-18.3 -0.4-7.3-0.8-14.6-1.2-21.9 -0.2-3.4-0.5-6.8-0.9-10.1 -0.6-5.7-1.3-11.5-2.1-17.2 -0.6-4.7-1.2-9.3-2.1-13.9 -1-5.2-2.2-10.4-3.7-15.6 -0.3-1.1-1.3-2.7-3.2-3.1 -2.2 1.7-2.3 4.5-3.9 6.6 -2.6-2.9-2.6-6.5-3.4-9.8 -1.9-7.5-3.8-14.9-5.3-22.4 -1-5-2.5-9.9-2.5-15 0-1-0.6-2-0.9-2.9 -2.8-0.9-4.2 0.4-5.6 2.1 -2.3 2.9-3.4 6.3-4.7 9.6 -1 2.6-1.8 5.3-2.7 7.9M-38.6 103.9c-0.7-4.6-1.5-9.1-2.1-13.7 -1-7.7-2.2-15.4-3.7-23 -1.9-9.7-2.8-19.6-1.4-29.5 0.3-2.4 0.4-4.9-0.5-7.4 -1.2-3.3-5.4-4.9-8.4-3 -1.1 0.7-1.6 1.6-0.9 2.7" class="drip drip2"/>

	<path d="M158.9-65c0 1.5 0 2.9 0 4.4 1 1.9 2 3.9 2.7 5.9 0.4 1 0.8 2 1.2 3.1 0.5-4.4 0.9-8.9 1.3-13.3H158.9z" class="drip drip1"/>

	<path d="M533.4-65H164.1c-0.4 4.4-0.8 8.9-1.3 13.3 1.8 4.5 4.1 8.8 6.4 13.2 2.9 5.5 5.5 11.1 9.1 16.5 4.7 7.2 12 12.3 22.1 15.4 1.5 0.5 3 1.1 4.8 0.9 3-0.4 4.2 0.9 5.3 2.6 2.8 4.3 3.8 8.9 4.7 13.5 0.8 4 1.5 8 1.3 12.1 -0.1 2.5 0.4 5 0.1 7.4 -0.8 6.5-1.6 13-1.8 19.6 -0.2 6.6-0.1 13.3 0 19.9 0.2 9.1 1.2 18.1 0.6 27.2 0 0.5-0.2 1 0.9 1.3 2.5-0.7 2.8-2.5 3.4-4.1 2-5.5 2.7-11.2 3.3-16.8 0.8-7.4 0.8-14.8 1-22.2 0.1-1.4-0.1-3 0.2-4.3 0.7-4.1 1-8.2 1.7-12.3 0.8-4.4 1.6-8.9 2.6-13.3 1-4.8 2-9.5 3.8-14.2 0.9-2.3 2.7-6.7 3.3-6.8s1.4 3.2 1.4 4.8c0.1 3.6 0.3 7.2-0.1 10.7 -0.4 3.5-0.5 7.1-1.3 10.6 -0.3 1.3-0.3 2.6-0.5 4 -0.6 3.9-0.9 7.9-1.5 11.8 -0.5 3.2-1.3 6.5-1.9 9.7 -0.8 5-1.6 9.9-2.1 14.9 -0.6 5.7-1.8 11.4-2 17.1 -0.1 3.3-0.4 6.6-1 9.9 -0.9 5.2-1.4 10.4-1.6 15.6 -0.3 6.1 1.5 12.1 2.5 18.2 0.5 3.3 1.3 6.6 1.9 9.9 0.2 0.9 0.5 1.8 1.2 2.6 1.1 1.3 2.2 1.7 4.1 0.8 2.1-1 4-0.9 6 0 3.9 1.8 8.4 1.5 12.7 1.6 5.4 0.1 10.9 0.5 16.3 0.5 7.2-0.1 14.2-0.9 18.8-5.8 1.5-1.6 3.4-1.7 5.7-0.7 0.7 0.3 1.2 0.7 1.9 1 3.2 1.3 5.7 0.4 6.5-2.2 1-3.1 1-6.3 1.1-9.5 0.3-6.7 0-13.5 0.6-20.2 0.5-6 0-11.9 0.4-17.8 0.3-4.5 0-9 0.2-13.5 0.2-5.8 0.2-11.5 0.3-17.3 0-9.9 0.1-19.8 0-29.8 0-5.7-0.6-11.4-0.5-17.1 0.2-6.1 0.5-12.2 1.9-18.2 0.9-3.6 3.2-7 4.6-10.5 0.7-1.6 0.8-3.4 2.3-4.9 0.2-0.2 0.6-0.9 1-0.9 0.4 0.1 2.2 4.7 2.9 7.1 2.3 7.5 2.1 15.1 2.6 22.7 0.2 3.6-0.6 7.3-0.5 10.9 0.1 3.2 0.2 6.5-0.3 9.7 -0.5 3.1 0 6.2 0.1 9.3 0 2 0.4 4 0.7 6.1 0.6 3.1 0.8 6.2 1.6 9.3 0.5 2 0.9 4.1 1.9 6.1 0.5 0.9 1 1.8 2.4 2 1.4 0.2 2.2-0.7 2.8-1.4 1.1-1.3 1.9-2.7 2.5-4.1 3-7.5 4.7-15.1 7.1-22.7 2.5-7.8 5.2-15.5 8-23.2 1.7-4.9 3.6-9.8 6.1-14.5 1.6-3.1 3.8-6 7.6-8.2 3.1-1.8 6.5-1.6 9.4 0.3 4.1 2.9 5.8 6.6 7.4 10.4 1.3 3.1 2.3 6.2 3.4 9.3 0.3 0.9 0.9 1.7 2.4 1.9 5.3-2.1 8.3-5.8 11.9-9 2.6 0.8 3.5 2.4 4.1 3.8 2.5 6.1 5.1 12.2 5 18.7 -0.1 5.3-0.6 10.6-1.1 15.9 -0.8 7-1.3 14.1-2 21.1 -0.4 4.4-0.9 8.9-0.9 13.3 -0.1 6-1 11.9-1.1 17.8 -0.1 8.2 0.1 16.4-1.2 24.6 -1 6.3-1.5 12.6 0.2 18.9 0.6 2.3 0.7 4.7 4 6.1 1.8-0.3 2.3-1.3 2.7-2.3 1.1-2.3 1.7-4.6 2.4-6.9 0.8-2.7 1.7-5.3 3.9-7.6 1.8-1.9 3.1-1.9 5 0 2.7 2.6 3.2 5.7 4 8.7 0.8 2.9 0.7 5.9 1.1 8.8 0.6 4.6 0.6 9.1 1.3 13.7 0.4 2.6 0.3 3.5 1.5 7.8 1.2 4.3 6 4.9 7.7 0 1.7-4.9 1.7-4.9 2.4-7.4 1-3.6 1.8-7.3 2.7-10.9 0.8-3.2 1.5-6.5 2.2-9.7 0.6-2.7 1.2-5.3 1.7-8 0.6-3.1 1.3-6.1 1.7-9.2 0.6-4.5 0.7-9.1 1.5-13.7 1.1-5.8 1.4-11.6 2.2-17.3 0.6-4.2 1-8.4 1.5-12.6 0.6-4.3 1.1-8.6 1.9-12.8 1.2-5.9 2.2-11.8 3.2-17.7 0.9-5.5 1.8-11.1 2.6-16.6 0.6-3.9 0.8-7.7 1.5-11.6 1.3-6.7 2.4-13.3 4.6-19.9 1.1-3.5 2.3-7 5.2-10.1 0.5-0.6 1-1.2 2.2-1 1 0.2 1.9 0.4 2 1.4 0.1 0.5 0.5 1 0.7 1.6 2.3 7.8 3 15.6 2.3 23.5 -0.6 6.3-0.7 12.6-1.5 18.9 -0.4 3.5-0.6 7-1 10.6 -0.6 4.7-1.4 9.5-1.8 14.2 -0.3 2.9-0.7 5.9-1 8.8 -0.4 5-0.9 10-1.4 15.1 -0.6 6.4-0.8 12.9-1 19.4 -0.1 4.1-0.1 8.2-0.4 12.3 -0.3 3.2-0.4 6.5 0.2 9.7 0.4 2.2 2.8 2.9 5.5 1.7 2-0.9 3.2-2.2 4.3-3.6 2-2.6 3.1-5.5 4.3-8.3 3.6-8.3 6.6-16.8 9.4-25.3 1.3-3.9 2.9-7.7 4-11.6 1.1-3.9 1.8-7.9 2.2-11.9 0.4-3.8 1-7.5 1.6-11.3 0.4-2.7 1-5.3 1.6-7.9 0.7-3.1 1.5-6.1 2.2-9.2 0.9-3.8 1.7-7.6 2.2-11.4 0.7-5.5 1.4-11 2.2-16.4 0.5-3.7 1.5-7.4 2-11.1 0.5-3.4 1.7-6.7 2.8-10 1.7-5.2 2.4-10.5 4.6-15.6 0.9-2.1 1.3-4.3 3.6-6 1.9 1.3 2.1 2.9 2.4 4.5 0.3 2.4 0.3 4.7 0.6 7.1 0.1 1.2-0.3 2.6 1.6 3.3 1-0.1 1.5-0.7 2-1.2 1.2-1.3 1.7-2.8 2.4-4.3 1.7-3.7 2.7-7.5 3.5-11.3 0.6-2.9 1.2-5.9 1.6-8.8 0.7-5.1 2.3-10.1 2.1-15.2L533.4-65z" class="drip drip1"/>

	<path d="M-597.2-44.5c0.2 9.4 0.8 18.8 1.6 28.2 7.6 1.2 10.7 3.9 13.6 6.5 6.3 5.5 8.6 11.2 10.4 17.1 1.5 5.1 1.7 10.2 2.4 15.2 0.4 2.8 0.8 5.7-0.5 8.5 -0.7 1.5-0.2 3-0.1 4.5 0.4 7.6-0.2 15.2-1 22.8 -0.8 6.9-2.5 13.7-3.6 20.6 -0.8 5.5-1.1 11-2 16.4 -0.9 5.7-1.6 11.3-2.5 17 -1 5.9-1.7 11.8-0.8 17.7 0.5 2.9 0.5 5.8 1.5 8.7 2.5 7.5 16.1 11 33.9 11.6 7.2 0.2 14.2 0.3 20.9-1 3.2-0.6 6-1.4 8.3-2.6 4.6 2.3 6.1 4.9 8.4 7.4 3.3 3.5 5.3 7.1 9.7 10.4 2.6 2 6 2.3 10.7 1 8.3-2.1 11-5.5 12.7-8.8 1.9-3.8 2.8-7.7 2.9-11.6 0.1-8-0.6-15.9-1.3-23.9 -0.5-5.2-1.4-10.5-1.6-15.7 -0.2-4.3 0.2-8.7 0.2-13 0.1-11.9 1.9-23.9 0.9-35.8 -0.4-4.6-0.2-9.2 0.3-13.8 0.6-5.6 1.6-11.2 4.3-16.8 1.1-2.4 1.3-4.8 2-7.3 1.1-3.6 2.1-7.3 3.3-10.9 0.6-1.9 0.8-4.2 2.8-4.3s5.6 3.8 6.8 5.9c2.5 4.1 4.5 8.3 6.1 12.5 1.2 3.1 1.2 6.3 2 9.5 0.7 2.5 0.4 5 2.7 7.5 3.1 3.3 10.9 4 17.2 1.5 1.8-0.7 4.2-2.4 4.2-2.4s0.3 2 0.5 2.4c1 2.3-0.1 4.5 0 6.8 0.3 5.8 0.6 11.7 0.9 17.5 0.2 3.5-0.2 6.9 0.4 10.4 1.1 6.6 0.4 13.2 0.5 19.7 0.1 3.9 0.6 7.7 0.8 11.6 0.5 8.4 0.1 16.8 0.2 25.3 0 2.3-0.3 4.5 0.6 6.7 2.2 5.7 3 11.5 6.9 17.1 2.1 3 3.5 6 8.3 8.7 5.9 3.3 12.3 3.3 17.3-0.2 0.5-0.4 0.7-0.9 2.3-1.1 2.3 0.7 2.5 1.7 3.2 2.6 3.7 5 7 10 10.8 15 0.8 1.1 1.1 2.7 5.5 2.7 4.6 0 5-1.5 6-2.7 3.6-4.6 3.8-9.3 5-14 0.6-2.2-0.4-4.5 0.2-6.7 1.6-5.7 1.3-11.4 2.5-17.1 0.8-3.8 1.7-7.5 2.9-11.2 1.4-4.6 2.7-9.2 3.7-13.8 1.2-5.8 2-11.5 1.4-17.3 -0.2-2-0.4-3.9-0.9-5.9 -1-3.7-2.2-7.4-4.1-11.1 -2-4-3.3-8-5.2-11.9 -1.6-3.2-1.8-6.4-1.5-9.7 0.5-4.4 3.2-8.6 5.5-12.8 3.8-7.1 3.5-14.3 4.8-21.5 0.9-5.1 1.9-10.1 5.3-15 1.2-1.7 2.4-3.5 8.2-4.2 2.8-0.3 4.4-1.4 5.6-2.4 3-2.4 4.5-5 4.6-7.6 0.2-5.9 1.6-11.7 3.1-17.5 1.3-5.2 3.8-10.3 3.5-15.6 -0.2-2.6 0-5.2 0-7.8 0-0.7-0.5-1.5 2.3-1.7 2.6-0.2 3.1 0.5 3.7 1.2 1 1 2 2.1 3 3.1 0-1.5 0-2.9 0.1-4.4H-597.2z" class="drip drip1"/>

	<path d="M-22.9-65v15.6c2.5 2.5 7.2 4.6 9.4 7.3 4 4.7 6.4 9.4 8.8 14.2 2.4 4.9 3 9.8 4.4 14.7 0.8 2.6 0.8 5.3 0.9 8 0.1 5.3 0.5 10.5 1.3 15.7 0.9 5.5 1.3 11.1 2.3 16.6 0.7 3.7 1.2 7.5 1.3 11.2 0.1 5.3 0.6 10.5 1 15.8 0.4 5 1.1 10 1.8 15.1 1 7 1.2 14 2.2 20.9 0.9 6.6 2 13.2 3.6 19.7 0.8 3.4 1 6.8 2.8 10.2 0.4 0.8 0.5 1.6 2.9 1.9 2.4 0.3 3.4-0.4 4.6-1 4.1-2 5.5-4.4 6.8-6.8 2.9-5.2 4.5-10.6 5.8-15.9 0.7-3.1 1.3-6.1 1.9-9.2 1.3-6.8 2.1-13.6 2.9-20.4 0.3-2.8 0-5.7 0.8-8.5 1.3-4.3 1.2-8.6 2.4-12.8 0.7-2.2 0.9-4.5 1.3-6.7 0.7-3.4 1.5-6.7 2.4-10.1 0.7-2.5 1.1-5.1 2.1-7.6 1-2.5 1.9-5.1 2.5-7.6 0.8-3.5 2.1-6.9 3.1-10.4 1-3.5 2.6-7 4.1-10.6 1.3-2.9 2.8-5.9 4.1-8.8 1.3-2.7 2.3-5.4 3.8-8.1 1.7-3.1 2.6-6.3 5-9.4 2.2-2.9 3.7-4 8.1-5.1 0.3 0 0.6 0.1 0.9 0.1 -0.8-9.4-1.3-18.7-1.6-28.2H-22.9z" class="drip drip1"/></svg>
